<?xml version="1.0" encoding="UTF-8" standalone="no"?>
<!-- Created with Inkscape (http://www.inkscape.org/) -->

<svg
   xmlns:dc="http://purl.org/dc/elements/1.1/"
   xmlns:cc="http://creativecommons.org/ns#"
   xmlns:rdf="http://www.w3.org/1999/02/22-rdf-syntax-ns#"
   xmlns:svg="http://www.w3.org/2000/svg"
   xmlns="http://www.w3.org/2000/svg"
   xmlns:xlink="http://www.w3.org/1999/xlink"
   xmlns:sodipodi="http://sodipodi.sourceforge.net/DTD/sodipodi-0.dtd"
   xmlns:inkscape="http://www.inkscape.org/namespaces/inkscape"
   version="1.1"
   id="svg815"
   xml:space="preserve"
   width="880"
   height="880"
   viewBox="0 0 880 880"
   sodipodi:docname="aircraft-silhouette.svg"
   inkscape:version="0.92.3 (2405546, 2018-03-11)"
   inkscape:export-filename="C:\Users\steve.huguenin\Pictures\aircraft-silhouette.png"
   inkscape:export-xdpi="875.42218"
   inkscape:export-ydpi="875.42218"><metadata
     id="metadata821"><rdf:RDF><cc:Work
         rdf:about=""><dc:format>image/svg+xml</dc:format><dc:type
           rdf:resource="http://purl.org/dc/dcmitype/StillImage" /><dc:title /></cc:Work></rdf:RDF></metadata><defs
     id="defs819"><marker
       inkscape:stockid="Arrow1Lend"
       orient="auto"
       refY="0.0"
       refX="0.0"
       id="Arrow1Lend"
       style="overflow:visible;"
       inkscape:isstock="true"><path
         id="path867"
         d="M 0.0,0.0 L 5.0,-5.0 L -12.5,0.0 L 5.0,5.0 L 0.0,0.0 z "
         style="fill-rule:evenodd;stroke:#000000;stroke-width:1pt;stroke-opacity:1;fill:#ff2a2a;fill-opacity:1"
         transform="scale(0.8) rotate(180) translate(12.5,0)" /></marker><marker
       inkscape:stockid="Arrow1Lstart"
       orient="auto"
       refY="0.0"
       refX="0.0"
       id="Arrow1Lstart"
       style="overflow:visible"
       inkscape:isstock="true"><path
         id="path864"
         d="M 0.0,0.0 L 5.0,-5.0 L -12.5,0.0 L 5.0,5.0 L 0.0,0.0 z "
         style="fill-rule:evenodd;stroke:#000000;stroke-width:1pt;stroke-opacity:1;fill:#ff2a2a;fill-opacity:1"
         transform="scale(0.8) translate(12.5,0)" /></marker><linearGradient
       inkscape:collect="always"
       id="linearGradient860"><stop
         style="stop-color:#000000;stop-opacity:1;"
         offset="0"
         id="stop856" /><stop
         style="stop-color:#000000;stop-opacity:0;"
         offset="1"
         id="stop858" /></linearGradient><clipPath
       clipPathUnits="userSpaceOnUse"
       id="clipPath831"><path
         d="M 0,660 H 660 V 0 H 0 Z"
         id="path829"
         inkscape:connector-curvature="0" /></clipPath><linearGradient
       inkscape:collect="always"
       xlink:href="#linearGradient860"
       id="linearGradient862"
       x1="16.005739"
       y1="339.11808"
       x2="643.06506"
       y2="339.11808"
       gradientUnits="userSpaceOnUse"
       gradientTransform="matrix(0.81716211,0,0,0.7921982,60.723655,61.343563)" /></defs><sodipodi:namedview
     pagecolor="#ffffff"
     bordercolor="#666666"
     borderopacity="1"
     objecttolerance="10"
     gridtolerance="10"
     guidetolerance="10"
     inkscape:pageopacity="0"
     inkscape:pageshadow="2"
     inkscape:window-width="1920"
     inkscape:window-height="1027"
     id="namedview817"
     showgrid="false"
     inkscape:zoom="0.96477273"
     inkscape:cx="250.83627"
     inkscape:cy="459.67551"
     inkscape:window-x="-8"
     inkscape:window-y="-8"
     inkscape:window-maximized="1"
     inkscape:current-layer="g823" /><g
     id="g823"
     inkscape:groupmode="layer"
     inkscape:label="aircraft-silhouette-freesvg.org"
     transform="matrix(1.3333333,0,0,-1.3333333,0,880)"><ellipse
       style="opacity:1;fill:#ffffff;fill-opacity:1;fill-rule:nonzero;stroke:#000000;stroke-width:5.75994539;stroke-linejoin:round;stroke-miterlimit:4;stroke-dasharray:none;stroke-opacity:1"
       id="path1196"
       cx="330"
       cy="-330"
       transform="scale(1,-1)"
       rx="326.10413"
       ry="326.10416" /><g
       id="g1068" /><path
       d="m 297.18912,327.87944 c 3.21962,-5.65788 -0.22472,-14.13361 -8.30727,-23.02445 -6.26028,13.68205 -20.38574,22.54279 -32.44133,20.33889 13.89993,-1.97495 23.69525,-12.39789 25.84929,-26.7763 -6.37959,-5.6048 -14.38287,-11.14305 -23.51956,-16.02775 -4.47315,-2.39323 -8.93813,-4.48067 -13.30504,-6.24886 -4.61288,15.4439 -18.80862,26.6139 -31.82928,25.36856 13.60248,-3.1371 22.5169,-14.06309 23.82681,-28.30286 -18.79064,-6.13162 -34.46708,-5.81315 -38.87566,1.93455 -6.01105,10.56 11.18939,30.929 38.41805,45.48961 27.22784,14.56614 54.1754,17.81098 60.18399,7.24861 m 18.51117,5.95495 c 7.79818,-13.69869 -14.51361,-40.11771 -49.83217,-59.00688 -35.31857,-18.89314 -70.27022,-23.1013 -78.06513,-9.40022 -7.79655,13.6971 14.51443,40.11612 49.83381,59.00529 35.31693,18.89313 70.27022,23.10129 78.06349,9.40181 m 188.71052,91.46641 -39.02522,-7.20662 c -76.59832,-14.1447 -149.36497,-41.4589 -215.0934,-80.14828 7.40349,7.1282 16.27133,14.47425 25.97022,21.29667 6.76039,4.75319 13.31812,8.82904 19.41904,12.14439 l -6.60021,87.7518 c -1.08846,14.44732 2.88458,30.17245 11.51627,45.59259 0.75342,1.34674 0.40776,2.65227 -0.83923,3.18621 -1.24944,0.53237 -3.09214,0.15924 -4.49113,-0.91181 l -37.5249,-28.6855 c -15.66091,-17.11623 -26.24888,-36.02838 -30.56186,-54.59434 l -8.94629,-38.51192 c -17.6793,-5.60243 -31.98536,-18.8353 -31.98536,-29.61158 0,-7.49657 6.923,-11.83148 17.08768,-11.93129 l 11.58654,27.28726 -15.3651,-66.15013 C 161.8205,277.56534 127.02655,246.26084 95.909835,211.294 c -6.87233,-7.72472 -26.05521,-28.95404 -20.79432,-37.78785 5.26007,-8.83222 33.813345,-3.33912 44.150445,-1.42991 3.30542,0.6084 6.60349,1.24454 9.89665,1.89889 2.58632,15.73464 3.0758,35.41839 -16.33916,42.12435 16.06541,1.52181 26.19332,-17.67711 23.74837,-29.28677 43.18948,4.04099 82.48598,17.19148 118.84479,37.21825 -15.12076,-12.22282 -31.91998,-22.38831 -50.24239,-30.685 22.81434,7.12741 45.19968,15.34805 67.08247,24.61122 l 90.73114,-32.73521 8.2e-4,-0.003 -29.94082,5.96366 c -2.60185,-3.8176 -4.07682,-7.69699 -4.07682,-11.32684 0,-11.902 15.84641,-16.57438 35.39047,-10.44118 6.64353,2.08665 12.85642,5.15325 18.16634,8.75617 l 35.69118,-12.8756 c 26.8642,-9.69254 57.24548,-14.31819 87.69048,-13.35091 l 56.50268,11.17554 c 2.1091,0.41748 3.50154,1.70718 3.39857,3.15215 -0.10459,1.43943 -1.68008,2.66971 -3.84311,3.00164 -24.76818,3.77007 -47.67895,11.7079 -66.42874,23.01811 l -116.91956,70.51241 c -13.85007,-8.76805 -33.35084,-16.34385 -55.27937,-20.84986 22.29218,11.54786 43.94779,24.23017 64.87285,38.00095 8.23782,28.44625 32.66688,56.52176 80.28373,84.05935 -34.25789,-24.90353 -62.25712,-49.62804 -65.08859,-73.61264 l -0.0212,-0.18695 c 37.56086,26.11085 72.61139,55.78976 104.5804,88.73095 l -4.92258,2.95252 -2.55118,10.66616 18.15162,14.73251 2.56671,2.08506 -17.69647,-17.69375 1.68499,-8.63179 c 11.78675,-5.63094 23.83989,-10.255 36.07935,-13.84762 8.36855,-2.45264 17.01739,0.3454 22.18758,7.18207 l 3.66415,4.8443 c 0.8948,1.18512 1.23964,2.89944 0.91032,4.50522 -0.32768,1.60816 -1.28784,2.86538 -2.51767,3.30584 -12.04661,4.33333 -23.18616,12.07707 -32.63255,22.64182 0.0637,1.82047 -0.17815,3.64649 -0.7191,5.40121 3.53993,21.31171 16.95202,40.18584 36.82295,50.88685 6.52177,3.51261 12.02536,8.53832 16.03109,14.60734 1.11542,1.68897 1.03126,3.77007 -0.21982,5.36794 -1.25189,1.59866 -3.29316,2.24034 -5.27233,1.65569 l -36.5844,-10.81727 c -5.23065,-1.54716 -9.39245,-3.87464 -13.3941,-7.49023 -10.67704,-9.65135 -21.07706,-19.5871 -31.18944,-29.79616 l -3.52769,1.69768 -1.30174,-2.45581 c -3.6331,2.51761 -6.13525,6.81845 -6.4997,11.799 l -0.26067,3.52211 c -0.11523,1.57014 -1.34505,2.75448 -2.77591,2.66892 l -6.18592,-0.35966 c -4.45108,-0.26063 -8.10543,-3.34783 -9.48398,-8.00912 -1.13667,-3.83979 -1.66538,-7.88713 -1.54853,-11.96537 l 0.23045,-8.08834 0.4715,-9.2402 c 4.46498,1.57726 9.42923,2.75685 14.61658,3.51973 7.24986,1.06551 14.93527,1.3206 22.31016,0.70823"
       style="fill:#ff2a2a;fill-opacity:1;fill-rule:evenodd;stroke:url(#linearGradient862);stroke-width:2.41375017;stroke-linejoin:round;stroke-miterlimit:4;stroke-dasharray:none"
       id="path925"
       inkscape:connector-curvature="0" /></g></svg>