<?xml version="1.0" encoding="UTF-8" standalone="no"?>
<svg
   version="1.0"
   width="175.41872pt"
   height="49.074768pt"
   viewBox="0 0 175.41872 49.074768"
   preserveAspectRatio="xMidYMid meet"
   id="svg111"
   sodipodi:docname="lrn_tech_logo.svg"
   inkscape:version="1.1 (c68e22c387, 2021-05-23)"
   xmlns:inkscape="http://www.inkscape.org/namespaces/inkscape"
   xmlns:sodipodi="http://sodipodi.sourceforge.net/DTD/sodipodi-0.dtd"
   xmlns="http://www.w3.org/2000/svg"
   xmlns:svg="http://www.w3.org/2000/svg">
  <defs
     id="defs115" />
  <sodipodi:namedview
     id="namedview113"
     pagecolor="#505050"
     bordercolor="#ffffff"
     borderopacity="1"
     inkscape:pageshadow="0"
     inkscape:pageopacity="0"
     inkscape:pagecheckerboard="1"
     inkscape:document-units="pt"
     showgrid="false"
     inkscape:zoom="3.1572581"
     inkscape:cx="146.17114"
     inkscape:cy="58.753512"
     inkscape:window-width="1920"
     inkscape:window-height="1001"
     inkscape:window-x="-9"
     inkscape:window-y="-9"
     inkscape:window-maximized="1"
     inkscape:current-layer="svg111" />
  <g
     transform="matrix(0.1,0,0,-0.1,-10,67.074768)"
     fill="#000000"
     stroke="none"
     id="g109"
     style="fill:#333333;stroke:#ffffff;stroke-opacity:1;stroke-width:9.99999998;stroke-miterlimit:4;stroke-dasharray:none">
    <path
       d="m 145,658 c -2,-7 -13,-38 -25,-68 -11,-30 -20,-58 -20,-62 0,-5 26,-8 59,-8 50,0 59,3 64,20 4,17 0,20 -29,20 -39,0 -39,2 -19,60 8,23 15,44 15,46 0,10 -41,2 -45,-8 z"
       id="path63"
       style="fill:#333333;stroke:#ffffff;stroke-opacity:1;stroke-width:9.99999998;stroke-miterlimit:4;stroke-dasharray:none" />
    <path
       d="m 493,653 c -3,-10 -14,-40 -25,-66 -23,-60 -23,-67 3,-67 13,0 23,10 30,30 6,17 15,30 19,30 5,0 11,-13 15,-30 5,-23 12,-30 31,-30 25,0 28,11 15,44 -5,13 0,26 17,43 39,39 26,58 -41,61 -48,3 -58,0 -64,-15 z m 75,-25 c -3,-7 -14,-14 -26,-16 -16,-3 -20,1 -16,12 7,19 48,22 42,4 z"
       id="path65"
       style="fill:#333333;stroke:#ffffff;stroke-opacity:1;stroke-width:9.99999998;stroke-miterlimit:4;stroke-dasharray:none" />
    <path
       d="m 912,602 c -27,-83 -27,-82 -4,-82 13,0 22,12 31,40 7,25 18,40 27,40 16,0 15,-19 -2,-64 -4,-11 0,-16 14,-16 22,0 42,43 42,88 0,21 -4,24 -30,20 -27,-4 -29,-2 -24,19 5,18 2,23 -13,23 -15,0 -24,-15 -41,-68 z"
       id="path67"
       style="fill:#333333;stroke:#ffffff;stroke-opacity:1;stroke-width:9.99999998;stroke-miterlimit:4;stroke-dasharray:none" />
    <path
       d="m 1285,658 c -12,-32 -45,-132 -45,-135 0,-1 9,-3 19,-3 13,0 23,11 31,35 14,44 24,44 36,3 8,-25 15,-33 33,-33 20,0 27,9 41,50 33,98 33,95 12,95 -15,0 -24,-12 -35,-42 -10,-28 -17,-38 -21,-28 -3,8 -10,27 -15,43 -11,28 -48,38 -56,15 z"
       id="path69"
       style="fill:#333333;stroke:#ffffff;stroke-opacity:1;stroke-width:9.99999998;stroke-miterlimit:4;stroke-dasharray:none" />
    <path
       d="m 1600,655 c 0,-8 9,-15 20,-15 11,0 20,7 20,15 0,8 -9,15 -20,15 -11,0 -20,-7 -20,-15 z"
       id="path71"
       style="fill:#333333;stroke:#ffffff;stroke-opacity:1;stroke-width:9.99999998;stroke-miterlimit:4;stroke-dasharray:none" />
    <path
       d="m 278,619 c -31,-18 -21,-32 18,-24 24,4 34,3 29,-4 -3,-6 -16,-11 -29,-11 -31,0 -61,-24 -53,-42 4,-11 20,-16 56,-16 50,0 51,1 62,38 7,21 9,46 6,54 -7,18 -62,21 -89,5 z m 37,-59 c -3,-5 -13,-10 -21,-10 -8,0 -12,5 -9,10 3,6 13,10 21,10 8,0 12,-4 9,-10 z"
       id="path73"
       style="fill:#333333;stroke:#ffffff;stroke-opacity:1;stroke-width:9.99999998;stroke-miterlimit:4;stroke-dasharray:none" />
    <path
       d="m 652,614 c -33,-23 -45,-50 -32,-74 25,-46 120,-6 120,50 0,41 -46,54 -88,24 z m 46,-36 c -4,-29 -38,-38 -38,-10 0,22 8,32 27,32 9,0 13,-8 11,-22 z"
       id="path75"
       style="fill:#333333;stroke:#ffffff;stroke-opacity:1;stroke-width:9.99999998;stroke-miterlimit:4;stroke-dasharray:none" />
    <path
       d="m 793,618 c -12,-6 -27,-23 -34,-39 -14,-36 1,-59 40,-59 35,0 76,29 62,43 -7,7 -15,6 -25,-3 -9,-7 -23,-10 -31,-6 -13,5 -14,10 -5,27 10,17 18,20 47,14 30,-5 34,-4 31,12 -4,21 -52,28 -85,11 z"
       id="path77"
       style="fill:#333333;stroke:#ffffff;stroke-opacity:1;stroke-width:9.99999998;stroke-miterlimit:4;stroke-dasharray:none" />
    <path
       d="m 1067,610 c -14,-11 -29,-30 -32,-41 -15,-47 53,-67 96,-28 l 24,20 -37,-6 c -24,-4 -38,-2 -38,5 0,5 18,10 39,10 42,0 54,13 39,43 -12,23 -59,22 -91,-3 z m 50,-16 c -3,-3 -12,-4 -19,-1 -8,3 -5,6 6,6 11,1 17,-2 13,-5 z"
       id="path79"
       style="fill:#333333;stroke:#ffffff;stroke-opacity:1;stroke-width:9.99999998;stroke-miterlimit:4;stroke-dasharray:none" />
    <path
       d="m 1462,614 c -33,-23 -45,-50 -32,-74 25,-46 120,-6 120,50 0,41 -46,54 -88,24 z m 46,-36 c -4,-29 -38,-38 -38,-10 0,22 8,32 27,32 9,0 13,-8 11,-22 z"
       id="path81"
       style="fill:#333333;stroke:#ffffff;stroke-opacity:1;stroke-width:9.99999998;stroke-miterlimit:4;stroke-dasharray:none" />
    <path
       d="m 1576,583 c -20,-59 -20,-63 2,-63 13,0 23,12 31,41 7,23 15,47 18,55 3,9 -2,14 -15,14 -15,0 -24,-12 -36,-47 z"
       id="path83"
       style="fill:#333333;stroke:#ffffff;stroke-opacity:1;stroke-width:9.99999998;stroke-miterlimit:4;stroke-dasharray:none" />
    <path
       d="m 1655,617 c -35,-96 -35,-97 -15,-97 13,0 25,12 35,36 8,20 23,38 34,41 39,10 32,31 -10,31 -22,1 -42,-5 -44,-11 z"
       id="path85"
       style="fill:#333333;stroke:#ffffff;stroke-opacity:1;stroke-width:9.99999998;stroke-miterlimit:4;stroke-dasharray:none" />
    <path
       d="m 1757,610 c -14,-11 -29,-30 -32,-41 -15,-47 53,-67 96,-28 l 24,20 -37,-6 c -24,-4 -38,-2 -38,5 0,5 18,10 39,10 42,0 54,13 39,43 -12,23 -59,22 -91,-3 z m 50,-16 c -3,-3 -12,-4 -19,-1 -8,3 -5,6 6,6 11,1 17,-2 13,-5 z"
       id="path87"
       style="fill:#333333;stroke:#ffffff;stroke-opacity:1;stroke-width:9.99999998;stroke-miterlimit:4;stroke-dasharray:none" />
    <path
       d="m 130,355 c 0,-8 9,-15 20,-15 24,0 24,5 1,-63 l -20,-57 h 24 c 20,0 26,9 42,58 17,49 23,57 46,60 15,2 27,10 27,18 0,11 -16,14 -70,14 -56,0 -70,-3 -70,-15 z"
       id="path89"
       style="fill:#333333;stroke:#ffffff;stroke-opacity:1;stroke-width:9.99999998;stroke-miterlimit:4;stroke-dasharray:none" />
    <path
       d="m 552,302 c -27,-83 -27,-82 -4,-82 13,0 22,12 31,40 7,25 18,40 27,40 16,0 15,-19 -2,-64 -4,-11 0,-16 14,-16 22,0 42,43 42,88 0,21 -4,24 -30,20 -27,-4 -29,-2 -24,19 5,18 2,23 -13,23 -15,0 -24,-15 -41,-68 z"
       id="path91"
       style="fill:#333333;stroke:#ffffff;stroke-opacity:1;stroke-width:9.99999998;stroke-miterlimit:4;stroke-dasharray:none" />
    <path
       d="m 972,302 c -27,-83 -27,-82 -4,-82 13,0 24,17 40,68 27,83 27,82 4,82 -13,0 -24,-17 -40,-68 z"
       id="path93"
       style="fill:#333333;stroke:#ffffff;stroke-opacity:1;stroke-width:9.99999998;stroke-miterlimit:4;stroke-dasharray:none" />
    <path
       d="m 287,310 c -14,-11 -29,-30 -32,-41 -15,-47 53,-67 96,-28 l 24,20 -37,-6 c -24,-4 -38,-2 -38,5 0,5 18,10 39,10 42,0 54,13 39,43 -12,23 -59,22 -91,-3 z m 50,-16 c -3,-3 -12,-4 -19,-1 -8,3 -5,6 6,6 11,1 17,-2 13,-5 z"
       id="path95"
       style="fill:#333333;stroke:#ffffff;stroke-opacity:1;stroke-width:9.99999998;stroke-miterlimit:4;stroke-dasharray:none" />
    <path
       d="m 433,318 c -12,-6 -27,-23 -34,-39 -14,-36 1,-59 40,-59 35,0 76,29 62,43 -7,7 -15,6 -25,-3 -9,-7 -23,-10 -31,-6 -13,5 -14,10 -5,27 10,17 18,20 47,14 30,-5 34,-4 31,12 -4,21 -52,28 -85,11 z"
       id="path97"
       style="fill:#333333;stroke:#ffffff;stroke-opacity:1;stroke-width:9.99999998;stroke-miterlimit:4;stroke-dasharray:none" />
    <path
       d="m 686,282 c -20,-58 -20,-62 2,-62 13,0 22,12 31,40 7,25 18,40 27,40 16,0 15,-19 -2,-64 -4,-11 0,-16 14,-16 21,0 42,42 42,86 0,21 -4,23 -49,22 h -50 z"
       id="path99"
       style="fill:#333333;stroke:#ffffff;stroke-opacity:1;stroke-width:9.99999998;stroke-miterlimit:4;stroke-dasharray:none" />
    <path
       d="m 852,314 c -33,-23 -45,-50 -32,-74 25,-46 120,-6 120,50 0,41 -46,54 -88,24 z m 46,-36 c -4,-29 -38,-38 -38,-10 0,22 8,32 27,32 9,0 13,-8 11,-22 z"
       id="path101"
       style="fill:#333333;stroke:#ffffff;stroke-opacity:1;stroke-width:9.99999998;stroke-miterlimit:4;stroke-dasharray:none" />
    <path
       d="m 1062,314 c -33,-23 -45,-50 -32,-74 25,-46 120,-6 120,50 0,41 -46,54 -88,24 z m 46,-36 c -4,-29 -38,-38 -38,-10 0,22 8,32 27,32 9,0 13,-8 11,-22 z"
       id="path103"
       style="fill:#333333;stroke:#ffffff;stroke-opacity:1;stroke-width:9.99999998;stroke-miterlimit:4;stroke-dasharray:none" />
    <path
       d="m 1198,319 c -8,-5 -21,-22 -28,-39 -16,-39 1,-64 38,-55 15,4 21,2 17,-5 -3,-5 -22,-10 -41,-10 -24,0 -34,-4 -32,-12 6,-17 62,-22 87,-9 16,9 61,104 61,130 0,11 -82,11 -102,0 z m 52,-33 c 0,-18 -27,-39 -40,-31 -7,4 -7,12 0,26 12,22 40,26 40,5 z"
       id="path105"
       style="fill:#333333;stroke:#ffffff;stroke-opacity:1;stroke-width:9.99999998;stroke-miterlimit:4;stroke-dasharray:none" />
    <path
       d="m 1322,273 c 3,-54 1,-58 -19,-61 -30,-4 -30,-32 0,-32 30,0 46,13 96,82 47,65 48,68 24,68 -10,0 -28,-17 -40,-38 l -22,-37 -1,38 c 0,31 -3,37 -21,37 -19,0 -21,-5 -17,-57 z"
       id="path107"
       style="fill:#333333;stroke:#ffffff;stroke-opacity:1;stroke-width:9.99999998;stroke-miterlimit:4;stroke-dasharray:none" />
  </g>
</svg>
